# xmcd CD database file
#
# Track frame offsets:
#	187
#	14447
#	32155
#	53237
#	69822
#	88545
#	107757
#	125335
#	143012
#	161942
#	174147
#	189315
#	204567
#	222057
#	242917
#
# Disc length: 3489 seconds
#
# Revision: 2
# Processed by: cddbd v1.5.1PL2 Copyright (c) Steve Scherf et al.
# Submitted via: CDex 1.51
#
DISCID=c80d9f0f
DTITLE=????? - ????????15
DYEAR=1992
DGENRE=New Age
TTITLE0=???
TTITLE1=??????
TTITLE2=????
TTITLE3=????
TTITLE4=?????
TTITLE5=???
TTITLE6=?????
TTITLE7=???????????
TTITLE8=?
TTITLE9=????????
TTITLE10=?????
TTITLE11=??????
TTITLE12=???????
TTITLE13=???????
TTITLE14=?????????
EXTD=YEAR: 1992
EXTT0=
EXTT1=
EXTT2=
EXTT3=
EXTT4=
EXTT5=
EXTT6=
EXTT7=
EXTT8=
EXTT9=
EXTT10=
EXTT11=
EXTT12=
EXTT13=
EXTT14=
PLAYORDER=
